<svg version="1.1" viewBox="0.0 0.0 100.0 100.0" fill="none" stroke="none" stroke-linecap="square" stroke-miterlimit="10" xmlns:xlink="http://www.w3.org/1999/xlink" xmlns="http://www.w3.org/2000/svg"><clipPath id="p.0"><path d="m0 0l100.0 0l0 100.0l-100.0 0l0 -100.0z" clip-rule="nonzero"/></clipPath><g clip-path="url(#p.0)"><path fill="#000000" fill-opacity="0.0" d="m0 0l100.0 0l0 100.0l-100.0 0z" fill-rule="evenodd"/><path fill="#000000" d="m65.10236 64.62467l-39.401577 0l0 0c-3.1324768 0 -6.1366577 -1.2443733 -8.351654 -3.4593697c-2.2149963 -2.2149963 -3.4593687 -5.2191772 -3.4593687 -8.351654l0 -9.745277c0 -1.1408806 0.9248667 -2.0657463 2.0657482 -2.0657463l58.892128 0l0 0c1.1408768 0 2.0657425 0.9248657 2.0657425 2.0657463l0 9.745277l0 0c0 6.5230484 -5.2879715 11.811024 -11.81102 11.811024z" fill-rule="evenodd"/><path fill="#000000" d="m73.69938 43.19193l0 0c6.1932297 -2.5910568 13.350128 -0.2606697 16.830376 5.480198c3.4802399 5.7408714 2.2361908 13.164097 -2.925537 17.456673c-5.1617355 4.292572 -12.687355 4.1623383 -17.697472 -0.3062744l4.783516 -5.3631783c2.3550568 2.1005135 5.8925476 2.1617317 8.318871 0.14396286c2.4263306 -2.017765 3.0111008 -5.5071297 1.3751831 -8.205681c-1.6359253 -2.698555 -5.000099 -3.7939758 -7.9112854 -2.576023z" fill-rule="evenodd"/><path fill="#000000" d="m76.92388 52.007874l0 0c0 10.52821 -6.014221 20.255547 -15.774479 25.513443c-9.760258 5.2578964 -21.78162 5.2464294 -31.530369 -0.030082703c-9.748749 -5.276512 -15.741709 -15.015301 -15.718705 -25.543491l31.511745 0.060131073z" fill-rule="evenodd"/><path fill="#000000" d="m68.68767 62.12336l10.362198 0l0 7.1181107l-10.362198 0z" fill-rule="evenodd"/><path fill="#000000" fill-opacity="0.0" d="m27.284777 15.991106c0 6.64567 1.7716541 9.968504 3.5433064 13.291338c1.771656 3.322834 3.5433083 6.645668 3.5433083 13.29134" fill-rule="evenodd"/><path stroke="#000000" stroke-width="4.0" stroke-linejoin="round" stroke-linecap="butt" stroke-dasharray="16.0,12.0,4.0,12.0" d="m27.284777 15.991106c0 6.64567 1.7716541 9.968504 3.5433064 13.291338c1.771656 3.322834 3.5433083 6.645668 3.5433083 13.29134" fill-rule="evenodd"/><path fill="#000000" fill-opacity="0.0" d="m41.868324 9.537038c0 6.645669 1.7716522 9.968503 3.5433083 13.291339c1.7716522 3.322834 3.5433044 6.645668 3.5433044 13.291336" fill-rule="evenodd"/><path stroke="#000000" stroke-width="4.0" stroke-linejoin="round" stroke-linecap="butt" d="m41.868324 9.537038c0 6.645669 1.7716522 9.968503 3.5433083 13.291339c1.7716522 3.322834 3.5433044 6.645668 3.5433044 13.291336" fill-rule="evenodd"/><path fill="#000000" fill-opacity="0.0" d="m59.53937 15.991106c0 6.64567 1.7716522 9.968504 3.5433044 13.291338c1.771656 3.322834 3.5433083 6.645668 3.5433083 13.29134" fill-rule="evenodd"/><path stroke="#000000" stroke-width="4.0" stroke-linejoin="round" stroke-linecap="butt" stroke-dasharray="16.0,12.0,4.0,12.0" d="m59.53937 15.991106c0 6.64567 1.7716522 9.968504 3.5433044 13.291338c1.771656 3.322834 3.5433083 6.645668 3.5433083 13.29134" fill-rule="evenodd"/><path fill="#000000" d="m87.92126 85.480316l0 0c0 2.0122833 -7.9128113 3.870224 -20.73339 4.868225c-12.82058 0.9980011 -28.582157 0.98296356 -41.298973 -0.039405823c-12.716816 -1.0223618 -20.438013 -2.895218 -20.231321 -4.907303l41.12983 0.07848358z" fill-rule="evenodd"/><path fill="#000000" d="m5.6535435 84.356964l0 0c0 -0.15946198 0.12926388 -0.28871918 0.28871965 -0.28871918l81.69028 0c0.07657623 0 0.15000916 0.030418396 0.20415497 0.08456421c0.054145813 0.054138184 0.08456421 0.12757874 0.08456421 0.20415497l0 1.1548386c0 0.15945435 -0.12926483 0.28871918 -0.28871918 0.28871918l-81.69028 0c-0.15945578 0 -0.28871965 -0.12926483 -0.28871965 -0.28871918z" fill-rule="evenodd"/></g></svg>